# xmcd CD database file
#
# Track frame offsets:
#	150
#	11947
#	33185
#	44030
#	64240
#	82842
#	97860
#	115262
#	133777
#	154295
#	171980
#	188052
#
# Disc length: 2845 seconds
#
# Revision: 1
# Processed by: cddbd v1.5.2PL0 Copyright (c) Steve Scherf et al.
# Submitted via: CDex 1.51
#
DISCID=9e0b1b0c
DTITLE=Chris Nole and Pete Huttlinger - Colors In Time [John Denver Tribute]
DYEAR=1998
DGENRE=New Age
TTITLE0=The Eagle And The Hawk
TTITLE1=Fly Away - I'm Sorry
TTITLE2=Druthers
TTITLE3=My Sweet Lady
TTITLE4=Two Hours
TTITLE5=Flight (The Higher We Fly)
TTITLE6=Travels
TTITLE7=Poems, Prayers and Promises
TTITLE8=For You
TTITLE9=Eagles And Horses (I'm Flying Again)
TTITLE10=Calypso
TTITLE11=Sunshine On My Shoulders
EXTD=YEAR: 1998
EXTT0=
EXTT1=
EXTT2=
EXTT3=
EXTT4=
EXTT5=
EXTT6=
EXTT7=
EXTT8=
EXTT9=
EXTT10=
EXTT11=
PLAYORDER=
